HIERARCHY
ROOT joint_Root
{
	OFFSET 0.0 0.0 0.0
	CHANNELS 6 Xposition Yposition Zposition Zrotation Xrotation Yrotation 
	JOINT Hips
	{
		OFFSET -0.726466 93.3139 -2.00062
		CHANNELS 6 Xposition Yposition Zposition Zrotation Xrotation Yrotation 
		JOINT Spine
		{
			OFFSET 15.7357 0.0 0.0
			CHANNELS 6 Xposition Yposition Zposition Zrotation Xrotation Yrotation 
			JOINT Chest
			{
				OFFSET 8.98455 -0.406207 0.0
				CHANNELS 6 Xposition Yposition Zposition Zrotation Xrotation Yrotation 
				JOINT Neck
				{
					OFFSET 16.3773 0.0 0.0
					CHANNELS 6 Xposition Yposition Zposition Zrotation Xrotation Yrotation 
					JOINT Head
					{
						OFFSET 6.45672 0.0 0.0
						CHANNELS 6 Xposition Yposition Zposition Zrotation Xrotation Yrotation 
						End Site
						{
							OFFSET 0.0 0.0 0.0
						}
					}
				}
				JOINT Shoulder_L
				{
					OFFSET 12.9942 -0.242716 4.98039
					CHANNELS 6 Xposition Yposition Zposition Zrotation Xrotation Yrotation 
					JOINT UpperArm_L
					{
						OFFSET 5.34809 0.0 0.0
						CHANNELS 6 Xposition Yposition Zposition Zrotation Xrotation Yrotation 
						JOINT LowerArm_L
						{
							OFFSET 24.3286 1.87007e-05 0.0
							CHANNELS 6 Xposition Yposition Zposition Zrotation Xrotation Yrotation 
							JOINT Hand_L
							{
								OFFSET 22.2916 0.0 0.0
								CHANNELS 6 Xposition Yposition Zposition Zrotation Xrotation Yrotation 
								End Site
								{
									OFFSET 0.0 0.0 0.0
								}
							}
						}
					}
				}
				JOINT Shoulder_R
				{
					OFFSET 12.9945 -0.242716 -4.98039
					CHANNELS 6 Xposition Yposition Zposition Zrotation Xrotation Yrotation 
					JOINT UpperArm_R
					{
						OFFSET -5.34813 0.0 0.0
						CHANNELS 6 Xposition Yposition Zposition Zrotation Xrotation Yrotation 
						JOINT LowerArm_R
						{
							OFFSET -24.3289 0.000322201 0.0
							CHANNELS 6 Xposition Yposition Zposition Zrotation Xrotation Yrotation 
							JOINT Hand_R
							{
								OFFSET -22.2915 -0.000108084 0.0
								CHANNELS 6 Xposition Yposition Zposition Zrotation Xrotation Yrotation 
								End Site
								{
									OFFSET 0.0 0.0 0.0
								}
							}
						}
					}
				}
			}
		}
		JOINT UpperLeg_L
		{
			OFFSET -2.19248 -6.46944 0.0
			CHANNELS 6 Xposition Yposition Zposition Zrotation Xrotation Yrotation 
			JOINT LowerLeg_L
			{
				OFFSET 39.0811 0.0 -1.23785e-05
				CHANNELS 6 Xposition Yposition Zposition Zrotation Xrotation Yrotation 
				JOINT Foot_L
				{
					OFFSET 40.9854 0.0 -1.26872e-05
					CHANNELS 6 Xposition Yposition Zposition Zrotation Xrotation Yrotation 
					JOINT Toes_L
					{
						OFFSET 11.7543 0.0 0.0
						CHANNELS 6 Xposition Yposition Zposition Zrotation Xrotation Yrotation 
						End Site
						{
							OFFSET 0.0 0.0 0.0
						}
					}
				}
			}
		}
		JOINT UpperLeg_R
		{
			OFFSET -2.19251 6.46944 0.0
			CHANNELS 6 Xposition Yposition Zposition Zrotation Xrotation Yrotation 
			JOINT LowerLeg_R
			{
				OFFSET -39.0811 -0.00228153 -0.0401928
				CHANNELS 6 Xposition Yposition Zposition Zrotation Xrotation Yrotation 
				JOINT Foot_R
				{
					OFFSET -40.9854 0.0 0.0
					CHANNELS 6 Xposition Yposition Zposition Zrotation Xrotation Yrotation 
					JOINT Toes_R
					{
						OFFSET -11.7543 0.0 0.0
						CHANNELS 6 Xposition Yposition Zposition Zrotation Xrotation Yrotation 
						End Site
						{
							OFFSET 0.0 0.0 0.0
						}
					}
				}
			}
		}
	}
}
MOTION
Frames:	9
Frame Time:	0.0333333
0.000000 0.000000 0.000000 0.000000 0.000000 -0.000000 -2.882200 92.102100 -1.695440 88.170600 1.732180 2.397520 15.735700 0.000005 -0.000001 72.297300 85.376700 -68.377300 8.984550 -0.406207 -0.000000 1.160550 -3.036070 7.865970 16.377300 -0.000001 -0.000001 3.212920 -0.533377 -2.631450 6.456720 -0.000001 -0.000000 -2.161730 -2.178700 19.629900 12.994200 -0.242716 4.980390 -83.541900 -11.220300 -59.812000 5.348090 -0.000007 -0.000001 -64.693700 -58.653800 -116.196000 24.328600 0.000019 0.000005 -2.023620 -2.263630 -41.815100 22.291600 -0.000001 0.000005 20.183700 5.578280 -10.120300 12.994500 -0.242716 -4.980390 89.569100 1.091140 -68.451100 -5.348130 -0.000001 -0.000004 -51.187200 71.431100 4.492240 -24.328900 0.000322 -0.000009 23.155800 1.545660 -86.392000 -22.291500 -0.000108 -0.000004 34.128100 5.670860 -24.724400 -2.192480 -6.469440 -0.000000 -167.947000 -14.791200 -3.212670 39.081100 -0.000007 -0.000012 -0.138523 0.412709 18.554200 40.985400 -0.000006 -0.000013 -7.901660 3.221860 -60.818300 11.754300 -0.000000 0.000003 -0.000094 -0.000980 -16.615200 -2.192510 6.469440 -0.000001 175.106000 21.635100 178.390000 -39.081100 -0.002282 -0.040193 -0.091498 0.266387 19.593200 -40.985400 0.000008 0.000006 -4.151430 1.910830 -63.720600 -11.754300 -0.000006 -0.000006 -0.004664 -0.058179 -18.940100
0.000000 0.000000 0.000000 0.000000 0.000000 -0.000000 -2.959460 92.101400 -1.691740 88.083100 1.796980 2.378290 15.735700 0.000005 -0.000001 72.651800 85.394700 -68.693100 8.984550 -0.406207 -0.000000 1.142540 -2.973700 7.941980 16.377300 -0.000001 -0.000001 3.207650 -0.706399 -2.453710 6.456720 -0.000001 -0.000000 -2.222510 -2.366970 19.635700 12.994200 -0.242716 4.980390 -83.626000 -11.140400 -59.965100 5.348090 -0.000007 -0.000001 -61.040800 -59.798100 -109.189000 24.328600 0.000019 0.000005 -1.781720 -2.138890 -39.808000 22.291600 -0.000001 0.000005 20.318700 5.571450 -9.762820 12.994500 -0.242716 -4.980390 89.566800 1.088940 -68.307500 -5.348130 -0.000001 -0.000004 -51.135000 71.448600 4.444120 -24.328900 0.000322 -0.000009 23.199300 1.543050 -86.405700 -22.291500 -0.000108 -0.000004 34.096000 5.671100 -24.685500 -2.192480 -6.469440 -0.000000 -167.805000 -14.763200 -3.240020 39.081100 -0.000007 -0.000012 -0.139458 0.416008 18.532800 40.985400 -0.000006 -0.000013 -7.955690 3.271340 -60.783900 11.754300 -0.000000 0.000003 -0.000105 -0.001073 -16.618700 -2.192510 6.469440 -0.000001 175.271000 21.618600 178.390000 -39.081100 -0.002282 -0.040193 -0.091071 0.265730 19.556300 -40.985400 0.000008 0.000006 -4.112860 1.804610 -63.735500 -11.754300 -0.000006 -0.000006 -0.004243 -0.053945 -18.767600
0.000000 0.000000 0.000000 0.000000 0.000000 -0.000000 -3.028480 92.091800 -1.681970 88.064100 1.817790 2.437610 15.735700 0.000005 -0.000001 73.444000 85.400000 -69.486800 8.984550 -0.406207 -0.000000 1.164850 -2.848000 7.938360 16.377300 -0.000001 -0.000001 3.185580 -0.801777 -2.284280 6.456720 -0.000001 -0.000000 -2.204870 -2.495030 19.661100 12.994200 -0.242716 4.980390 -83.679700 -11.122400 -60.136900 5.348090 -0.000007 -0.000001 -56.775200 -60.419500 -101.354000 24.328600 0.000019 0.000005 -1.534780 -1.997690 -37.548500 22.291600 -0.000001 0.000005 20.557800 5.566230 -9.496890 12.994500 -0.242716 -4.980390 89.563500 1.092760 -68.226000 -5.348130 -0.000001 -0.000004 -51.339600 71.405400 4.655210 -24.328900 0.000322 -0.000009 23.182900 1.543450 -86.401900 -22.291500 -0.000108 -0.000004 34.099600 5.670860 -24.724100 -2.192480 -6.469440 -0.000000 -167.728000 -14.748000 -3.196520 39.081100 -0.000007 -0.000012 -0.139534 0.415652 18.557000 40.985400 -0.000006 -0.000013 -7.996880 3.278730 -60.781200 11.754300 -0.000000 0.000003 -0.000101 -0.001036 -16.617300 -2.192510 6.469440 -0.000001 175.305000 21.634900 178.431000 -39.081100 -0.002282 -0.040193 -0.092161 0.267646 19.634100 -40.985400 0.000008 0.000006 -4.071580 1.810620 -63.804900 -11.754300 -0.000006 -0.000006 -0.004387 -0.055406 -18.827100
0.000000 0.000000 0.000000 0.000000 0.000000 -0.000000 -3.084690 92.087400 -1.682330 88.008100 1.823530 2.431100 15.735700 0.000005 -0.000001 74.188000 85.418400 -70.223700 8.984550 -0.406207 -0.000000 1.158660 -2.723970 7.950900 16.377300 -0.000001 -0.000001 3.133640 -0.902172 -2.113310 6.456720 -0.000001 -0.000000 -2.166340 -2.562980 19.611100 12.994200 -0.242716 4.980390 -83.774900 -11.035800 -60.324100 5.348090 -0.000007 -0.000001 -52.279000 -60.467100 -93.222900 24.328600 0.000019 0.000005 -1.258520 -1.791540 -35.092900 22.291600 -0.000001 0.000005 20.843500 5.558800 -9.129200 12.994500 -0.242716 -4.980390 89.593300 1.015770 -68.178600 -5.348130 -0.000001 -0.000004 -51.504700 71.404700 4.704220 -24.328900 0.000322 -0.000009 23.210700 1.558800 -86.371000 -22.291500 -0.000108 -0.000004 34.057800 5.670820 -24.730300 -2.192480 -6.469440 -0.000000 -167.640000 -14.639700 -3.213980 39.081100 -0.000007 -0.000012 -0.139994 0.416817 18.565500 40.985400 -0.000006 -0.000013 -8.055800 3.191070 -60.786800 11.754300 -0.000000 0.000003 -0.000094 -0.000978 -16.615100 -2.192510 6.469440 -0.000001 175.405000 21.675400 178.414000 -39.081100 -0.002282 -0.040193 -0.091894 0.266647 19.651000 -40.985400 0.000008 0.000006 -4.026640 1.823770 -63.826700 -11.754300 -0.000006 -0.000006 -0.004523 -0.056774 -18.882800
0.000000 0.000000 0.000000 0.000000 0.000000 -0.000000 -3.139800 92.086500 -1.699610 87.934100 1.828630 2.432910 15.735700 0.000005 -0.000001 75.264400 85.436600 -71.292400 8.984550 -0.406207 -0.000000 1.162640 -2.548970 7.964340 16.377300 -0.000001 -0.000001 3.092660 -0.976132 -1.964750 6.456720 -0.000001 -0.000000 -2.147210 -2.644630 19.581000 12.994200 -0.242716 4.980390 -83.819200 -11.010800 -60.446100 5.348090 -0.000007 -0.000001 -49.069400 -59.710100 -85.963700 24.328600 0.000019 0.000005 -0.911476 -1.422080 -32.661300 22.291600 -0.000001 0.000005 21.242100 5.552730 -8.838070 12.994500 -0.242716 -4.980390 89.598800 0.999904 -68.138400 -5.348130 -0.000001 -0.000004 -51.810600 71.438000 4.995980 -24.328900 0.000322 -0.000009 23.215100 1.566460 -86.354000 -22.291500 -0.000108 -0.000004 34.188900 5.670760 -24.739900 -2.192480 -6.469440 -0.000000 -167.527000 -14.623400 -3.236120 39.081100 -0.000007 -0.000012 -0.140930 0.419389 18.574300 40.985400 -0.000006 -0.000013 -8.094890 3.199700 -60.766500 11.754300 -0.000000 0.000003 -0.000089 -0.000935 -16.613500 -2.192510 6.469440 -0.000001 175.528000 21.659900 178.410000 -39.081100 -0.002282 -0.040193 -0.091776 0.266626 19.630000 -40.985400 0.000008 0.000006 -3.986290 1.802280 -63.822500 -11.754300 -0.000006 -0.000006 -0.004405 -0.055586 -18.834400
0.000000 0.000000 0.000000 0.000000 0.000000 -0.000000 -3.178230 92.083200 -1.715450 87.871400 1.815200 2.440130 15.735700 0.000005 -0.000001 76.210300 85.440900 -72.236700 8.984550 -0.406207 -0.000000 1.186220 -2.400240 7.966390 16.377300 -0.000001 -0.000001 3.036510 -1.043090 -1.805310 6.456720 -0.000001 -0.000000 -2.077940 -2.727910 19.577600 12.994200 -0.242716 4.980390 -83.839000 -11.014800 -60.534600 5.348090 -0.000007 -0.000001 -46.999100 -58.456100 -79.464900 24.328600 0.000019 0.000005 -0.735740 -1.261190 -30.260300 22.291600 -0.000001 0.000005 22.134800 5.547890 -8.607640 12.994500 -0.242716 -4.980390 89.618700 0.949317 -68.118500 -5.348130 -0.000001 -0.000004 -52.040200 71.484700 5.136920 -24.328900 0.000322 -0.000009 23.334000 1.602870 -86.290700 -22.291500 -0.000108 -0.000004 34.299400 5.671020 -24.696800 -2.192480 -6.469440 -0.000000 -167.427000 -14.597200 -3.250240 39.081100 -0.000007 -0.000012 -0.143691 0.427099 18.594900 40.985400 -0.000006 -0.000013 -8.134640 3.179840 -60.761900 11.754300 -0.000000 0.000003 -0.000093 -0.000971 -16.614900 -2.192510 6.469440 -0.000001 175.626000 21.640500 178.399000 -39.081100 -0.002282 -0.040193 -0.091171 0.264911 19.631200 -40.985400 0.000008 0.000006 -3.956560 1.786570 -63.822900 -11.754300 -0.000006 -0.000006 -0.004439 -0.055932 -18.848500
0.000000 0.000000 0.000000 0.000000 0.000000 -0.000000 -3.205010 92.081600 -1.737310 87.845900 1.835340 2.436410 15.735700 0.000005 -0.000001 76.980500 85.437100 -73.010200 8.984550 -0.406207 -0.000000 1.217630 -2.281450 7.958990 16.377300 -0.000001 -0.000001 2.958290 -1.160010 -1.605200 6.456720 -0.000001 -0.000000 -2.016930 -2.805150 19.561700 12.994200 -0.242716 4.980390 -83.782600 -11.181400 -60.672600 5.348090 -0.000007 -0.000001 -47.571700 -57.072800 -74.650800 24.328600 0.000019 0.000005 -0.530400 -0.985675 -28.281200 22.291600 -0.000001 0.000005 22.573900 5.540400 -8.261810 12.994500 -0.242716 -4.980390 89.607100 0.975919 -68.070200 -5.348130 -0.000001 -0.000004 -51.943600 71.526400 5.109110 -24.328900 0.000322 -0.000009 23.237400 1.573040 -86.342700 -22.291500 -0.000108 -0.000004 34.202100 5.670150 -24.836300 -2.192480 -6.469440 -0.000000 -167.395000 -14.601700 -3.296320 39.081100 -0.000007 -0.000012 -0.142945 0.424068 18.628000 40.985400 -0.000006 -0.000013 -8.140280 3.194120 -60.751500 11.754300 -0.000000 0.000003 -0.000087 -0.000916 -16.612800 -2.192510 6.469440 -0.000001 175.680000 21.673200 178.363000 -39.081100 -0.002282 -0.040193 -0.090692 0.263193 19.657200 -40.985400 0.000008 0.000006 -3.930750 1.780700 -63.824800 -11.754300 -0.000006 -0.000006 -0.004455 -0.056087 -18.854800
0.000000 0.000000 0.000000 0.000000 0.000000 -0.000000 -3.214140 92.082300 -1.772790 87.838700 1.846250 2.435700 15.735700 0.000005 -0.000001 77.561400 85.416100 -73.609300 8.984550 -0.406207 -0.000000 1.275650 -2.197240 7.922780 16.377300 -0.000001 -0.000001 2.886740 -1.340790 -1.321780 6.456720 -0.000001 -0.000000 -1.996990 -2.900450 19.635600 12.994200 -0.242716 4.980390 -83.758600 -11.291700 -60.814400 5.348090 -0.000007 -0.000001 -51.077800 -56.052800 -72.419100 24.328600 0.000019 0.000005 -0.449845 -0.919714 -26.074800 22.291600 -0.000001 0.000005 22.813800 5.525200 -7.586490 12.994500 -0.242716 -4.980390 89.607200 0.971679 -67.989200 -5.348130 -0.000001 -0.000004 -51.809800 71.637800 4.898130 -24.328900 0.000322 -0.000009 23.294300 1.606230 -86.275900 -22.291500 -0.000108 -0.000004 34.336900 5.669880 -24.878500 -2.192480 -6.469440 -0.000000 -167.390000 -14.604000 -3.334190 39.081100 -0.000007 -0.000012 -0.143366 0.425023 18.640200 40.985400 -0.000006 -0.000013 -8.140360 3.187070 -60.727600 11.754300 -0.000000 0.000003 -0.000083 -0.000873 -16.611200 -2.192510 6.469440 -0.000001 175.697000 21.738800 178.334000 -39.081100 -0.002282 -0.040193 -0.089915 0.260769 19.674400 -40.985400 0.000008 0.000006 -3.906530 1.824700 -63.813400 -11.754300 -0.000006 -0.000006 -0.004216 -0.053666 -18.756200
0.000000 0.000000 0.000000 0.000000 0.000000 -0.000000 -3.214180 92.085000 -1.804190 87.808500 1.864500 2.376010 15.735700 0.000005 -0.000001 77.980200 85.395200 -74.038000 8.984550 -0.406207 -0.000000 1.328390 -2.138070 7.903390 16.377300 -0.000001 -0.000001 2.798850 -1.542850 -1.018580 6.456720 -0.000001 -0.000000 -1.964950 -3.107950 19.794700 12.994200 -0.242716 4.980390 -83.715800 -11.453700 -60.989100 5.348090 -0.000007 -0.000001 -55.347200 -55.540700 -70.870100 24.328600 0.000019 0.000005 -0.695811 -1.576360 -23.822100 22.291600 -0.000001 0.000005 23.639100 5.513760 -7.099950 12.994500 -0.242716 -4.980390 89.607400 0.968497 -67.931200 -5.348130 -0.000001 -0.000004 -51.816800 71.640300 4.850820 -24.328900 0.000322 -0.000009 23.401500 1.605780 -86.296000 -22.291500 -0.000108 -0.000004 34.287000 5.670050 -24.851800 -2.192480 -6.469440 -0.000000 -167.374000 -14.600800 -3.431040 39.081100 -0.000007 -0.000012 -0.145458 0.430982 18.649900 40.985400 -0.000006 -0.000013 -8.138080 3.209510 -60.706800 11.754300 -0.000000 0.000003 -0.000095 -0.000981 -16.615200 -2.192510 6.469440 -0.000001 175.756000 21.782900 178.261000 -39.081100 -0.002282 -0.040193 -0.088979 0.258530 19.647700 -40.985400 0.000008 0.000006 -3.896960 1.841650 -63.778000 -11.754300 -0.000006 -0.000006 -0.004493 -0.056468 -18.870400
